<svg xmlns="http://www.w3.org/2000/svg" viewBox="0 0 500 40" aria-hidden="true" preserveAspectRatio="xMidYMid meet">
  <style>
    .ink { fill: #111; stroke: #111; }
    @media (prefers-color-scheme: dark) { .ink { fill: #e8e2d4; stroke: #e8e2d4; } }
  </style>
  <line class="ink" x1="0" y1="20" x2="180" y2="20" stroke-width="0.8"/>
  <circle class="ink" cx="200" cy="20" r="1.8"/>
  <g transform="translate(218, 4)">
    <svg width="64" height="32" viewBox="0 0 95 70" overflow="visible">
    <g transform="translate(0,70) scale(0.1,-0.1)">
      <path class="ink" d="M640 480 c0 -5 14 -25 30 -43 46 -53 35 -56 -13 -3 -43 45 -77 60 -77 32 0 -18 66 -76 85 -76 20 0 19 -24 -1 -41 -11 -9 -40 -13 -83 -12 -175 4 -277 10 -289 17 -6 4 -17 4 -22 1 -15 -9 8 -35 31 -35 17 0 17 -1 1 -30 -15 -27 -21 -30 -52 -25 -23 4 -46 0 -65 -9 -17 -9 -40 -16 -52 -16 -12 0 -25 -5 -28 -10 -9 -15 46 -11 75 5 14 8 34 14 45 14 11 1 -11 -15 -50 -34 -51 -25 -63 -34 -45 -35 14 0 40 9 59 21 29 17 43 20 92 14 51 -6 64 -4 104 18 25 14 45 22 45 19 0 -9 145 -43 185 -43 115 -1 164 -6 192 -17 17 -8 40 -12 50 -10 11 3 -3 11 -37 23 -33 12 -48 21 -37 23 10 2 32 -1 49 -7 17 -6 40 -11 52 -10 12 0 -6 10 -39 20 -35 12 -76 18 -97 15 -40 -4 -41 -4 -32 32 5 16 14 22 35 22 53 0 46 55 -10 85 -16 8 -32 26 -35 40 -10 40 -66 87 -66 55z"/>
    </g>
    </svg>
  </g>
  <circle class="ink" cx="300" cy="20" r="1.8"/>
  <line class="ink" x1="320" y1="20" x2="500" y2="20" stroke-width="0.8"/>
</svg>
